<svg xmlns="http://www.w3.org/2000/svg" viewBox="0 0 327.68 211.57"><defs><style>.cls-1{fill:#fff;}</style></defs><title>back-arrow-white</title><g id="Слой_2" data-name="Слой 2"><g id="Capa_1" data-name="Capa 1"><path class="cls-1" d="M130.34,176.9h0L56.27,105.78l74.06-71.12a19.89,19.89,0,0,0,0-28.86,21.31,21.31,0,0,0-29.25,0l-99,95a6.83,6.83,0,0,0,0,9.85l99,95a21.31,21.31,0,0,0,29.25,0,19.9,19.9,0,0,0,0-28.86Zm-9.46,19a7.63,7.63,0,0,1-10.34,0L16.68,105.78l93.87-90.13a7.63,7.63,0,0,1,10.33,0,6.25,6.25,0,0,1,0,9.16l-79.19,76a6.83,6.83,0,0,0,0,9.85l79.18,76a6.25,6.25,0,0,1,0,9.17Z"/><path class="cls-1" d="M225.91,176.89l-74.06-71.11,74.06-71.12a19.89,19.89,0,0,0,0-28.86,21.32,21.32,0,0,0-29.25,0l-99,95a6.83,6.83,0,0,0,0,9.85l99,95.05a21.32,21.32,0,0,0,29.25,0,19.9,19.9,0,0,0,0-28.86Zm-9.46,19a7.64,7.64,0,0,1-10.35,0l-93.85-90.13L206.1,15.66a7.64,7.64,0,0,1,10.35,0,6.25,6.25,0,0,1,0,9.16l-79.19,76a6.83,6.83,0,0,0,0,9.85l79.18,76a6.25,6.25,0,0,1,0,9.17Z"/><path class="cls-1" d="M321.49,176.9h0l-74.06-71.11,74.06-71.12a19.89,19.89,0,0,0,0-28.86,21.33,21.33,0,0,0-29.25,0l-99,95a6.83,6.83,0,0,0,0,9.85l99,95.05a21.33,21.33,0,0,0,29.25,0,19.9,19.9,0,0,0,0-28.86Zm-9.46,19a7.55,7.55,0,0,1-10.35,0l-93.85-90.13,93.85-90.13a7.55,7.55,0,0,1,10.35,0,6.25,6.25,0,0,1,0,9.16l-79.19,76a6.83,6.83,0,0,0,0,9.85l79.18,76a6.25,6.25,0,0,1,0,9.17Z"/></g></g></svg>