<svg xmlns="http://www.w3.org/2000/svg" viewBox="0 0 404.85 511"><defs><style>.cls-1{fill:#fff;}</style></defs><title>download-icon-white</title><g id="Слой_2" data-name="Слой 2"><g id="Слой_1-2" data-name="Слой 1"><g id="surface1"><path class="cls-1" d="M275.37,3.95A12.36,12.36,0,0,0,266.49,0H67.15C30.36,0,0,30.24,0,67V444c0,36.78,30.36,67,67.15,67H337.7c36.78,0,67.15-30.24,67.15-67V144.66a13.28,13.28,0,0,0-3.58-8.64ZM279,43.57l84.3,88.5h-54.8A29.4,29.4,0,0,1,279,102.69ZM337.7,486.31H67.15c-23.08,0-42.46-19.13-42.46-42.34V67c0-23.08,19.26-42.34,42.46-42.34H254.26v78a54,54,0,0,0,54.19,54.06h71.71V444A42.67,42.67,0,0,1,337.7,486.31Z"/><path class="cls-1" d="M304,401.15H100.84a12.34,12.34,0,1,0,0,24.69H304.13a12.34,12.34,0,1,0-.12-24.69Z"/><path class="cls-1" d="M193.41,356.84a12.25,12.25,0,0,0,18,0l72.33-77.64a12.31,12.31,0,1,0-18-16.79l-51,54.68V182.31a12.34,12.34,0,0,0-24.69,0V317.09l-50.85-54.68a12.31,12.31,0,0,0-18,16.79Z"/></g></g></g></svg>