<?xml version="1.0" encoding="utf-8"?>
<!-- Generator: Adobe Illustrator 21.1.0, SVG Export Plug-In . SVG Version: 6.00 Build 0)  -->
<svg version="1.1" id="Слой_1" xmlns="http://www.w3.org/2000/svg" xmlns:xlink="http://www.w3.org/1999/xlink" x="0px" y="0px"
	 viewBox="0 0 405.9 512" style="enable-background:new 0 0 405.9 512;" xml:space="preserve">
<style type="text/css">
	.st0{fill:#AC3193;}
</style>
<title>download-icon-yellow</title>
<g id="Слой_2">
	<g id="Слой_1-2">
		<g id="surface1">
			<path class="st0" d="M275.9,4.4c-2.3-2.5-5.5-3.9-8.9-3.9H67.7c-36.8,0-67.2,30.2-67.2,67v377c0,36.8,30.4,67,67.2,67h270.6
				c36.8,0,67.1-30.2,67.1-67V145.2c-0.1-3.2-1.4-6.3-3.6-8.6L275.9,4.4z M279.4,44.1l84.3,88.5H309c-16.2,0.1-29.4-13.1-29.5-29.3
				c0,0,0-0.1,0-0.1L279.4,44.1z M338.2,486.8H67.7c-23.1,0-42.5-19.1-42.5-42.3v-377c0-23.1,19.3-42.3,42.5-42.3h187.1v78
				c-0.1,29.8,24,54.1,53.9,54.1c0.1,0,0.2,0,0.4,0h71.7v287.2C380.5,467.9,361.6,486.7,338.2,486.8z"/>
			<path class="st0" d="M304.5,401.6H101.3c-6.8,0-12.3,5.5-12.3,12.3s5.5,12.3,12.3,12.3h203.3c6.8,0,12.3-5.6,12.3-12.4
				S311.3,401.6,304.5,401.6z"/>
			<path class="st0" d="M193.9,357.3c4.6,5,12.3,5.3,17.3,0.7c0.2-0.2,0.5-0.5,0.7-0.7l72.3-77.6c4.7-4.9,4.6-12.7-0.3-17.4
				s-12.7-4.6-17.4,0.3c-0.1,0.1-0.2,0.2-0.3,0.4l-51,54.7V182.8c0-6.8-5.5-12.3-12.3-12.3s-12.3,5.5-12.3,12.3v134.8l-50.9-54.7
				c-4.7-4.9-12.5-5-17.4-0.3c-4.7,4.6-5,12.1-0.6,17L193.9,357.3z"/>
		</g>
	</g>
</g>
</svg>
