<svg xmlns="http://www.w3.org/2000/svg" viewBox="0 0 496 496"><path d="M435.264 338.44C448.824 310.368 456 279.344 456 248s-7.176-62.368-20.736-90.44C470.08 148.896 496 117.456 496 80c0-44.112-35.888-80-80-80-37.512 0-68.992 25.992-77.592 60.88-6.232-3.008-12.608-5.736-19.176-8.128C314.728 22.944 289.008 0 257.968 0h-19.936c-31.04 0-56.76 22.944-61.256 52.752-6.568 2.392-12.944 5.128-19.176 8.128C148.992 25.992 117.512 0 80 0 35.888 0 0 35.888 0 80c0 37.456 25.92 68.896 60.736 77.56C47.176 185.632 40 216.656 40 248s7.176 62.368 20.736 90.44C25.92 347.104 0 378.544 0 416c0 44.112 35.888 80 80 80 37.472 0 68.92-25.936 77.568-60.776 3.384 1.624 6.88 3.152 10.432 4.632V496h160v-56.144c3.552-1.48 7.048-3 10.432-4.632C347.08 470.064 378.528 496 416 496c44.112 0 80-35.888 80-80 0-37.456-25.92-68.896-60.736-77.56zM416 16c35.288 0 64 28.712 64 64s-28.712 64-64 64-64-28.712-64-64 28.712-64 64-64zM192 62.032C192 36.648 212.648 16 238.032 16h19.936C283.352 16 304 36.648 304 62.032v3.096c-4.344-3.664-8.248-7.92-11.536-12.856A27.467 27.467 0 00269.544 40h-43.096c-9.232 0-17.8 4.584-23.184 12.68-3.128 4.696-6.968 8.856-11.264 12.464v-3.112zm0 22.536c9.784-5.768 18.304-13.6 24.864-23.44A11.495 11.495 0 01226.456 56h43.096c3.864 0 7.456 1.92 9.872 5.552 6.312 9.464 14.8 17.256 24.576 23.016V88c0 30.872-25.128 56-56 56s-56-25.128-56-56v-3.432zM274.76 160c-6.064 5.504-16.512 11.44-26.76 15.456-10.248-4.008-20.704-9.952-26.76-15.456h53.52zM16 80c0-35.288 28.712-64 64-64s64 28.712 64 64-28.712 64-64 64-64-28.712-64-64zm64 400c-35.288 0-64-28.712-64-64s28.712-64 64-64 64 28.712 64 64-28.712 64-64 64zm88-57.52c-2.8-1.272-5.464-2.632-8.128-4.008.024-.824.128-1.64.128-2.472 0-44.112-35.888-80-80-80-.84 0-1.656.104-2.496.128C63.48 309.016 56 278.68 56 248s7.48-61.016 21.504-88.128c.84.024 1.656.128 2.496.128 44.112 0 80-35.888 80-80 0-.816-.096-1.608-.12-2.424A189.809 189.809 0 01176 70.192V88c0 22.608 10.496 42.792 26.84 56H192c-39.704 0-72 32.296-72 72v80c0 26.472 21.528 48 48 48v78.48zm0-94.48c-17.648 0-32-14.352-32-32v-64h32v96zm72 152h-56v-16h56v16zm72 0h-56v-16h56v16zm0-32h-56v-88h-16v88h-56v-80.808c18.232-3.72 32-19.872 32-39.192h64c0 19.312 13.768 35.472 32 39.192V448zm-128-97.472V328h16c0 10.416-6.712 19.216-16 22.528zm128 0c-9.288-3.312-16-12.112-16-22.528h16v22.528zM312 200v112H184V200h-16v16h-32c0-30.872 25.128-56 56-56h9.656c7.36 17.672 37.024 29.16 43.648 31.528l2.696.976 2.696-.968c6.616-2.368 36.288-13.856 43.648-31.528H304c30.872 0 56 25.128 56 56h-32V200h-16zm48 32v64c0 17.648-14.352 32-32 32v-96h32zm-23.872 186.472c-2.664 1.376-5.328 2.736-8.128 4.008V344c26.472 0 48-21.528 48-48v-80c0-39.704-32.296-72-72-72h-10.84C309.504 130.792 320 110.608 320 88V70.192a192.338 192.338 0 0116.12 7.384c-.024.816-.12 1.608-.12 2.424 0 44.112 35.888 80 80 80 .84 0 1.656-.104 2.496-.128C432.52 186.984 440 217.32 440 248s-7.48 61.016-21.504 88.128c-.84-.024-1.656-.128-2.496-.128-44.112 0-80 35.888-80 80 0 .832.104 1.648.128 2.472zM416 480c-35.288 0-64-28.712-64-64s28.712-64 64-64 64 28.712 64 64-28.712 64-64 64z"/><path d="M40 40h80v16H40zM40 72h80v16H40zM104 104h16v16h-16zM40 104h48v16H40zM376 40h80v16h-80zM376 72h80v16h-80zM440 104h16v16h-16zM376 104h48v16h-48zM40 376h80v16H40zM40 408h80v16H40zM104 440h16v16h-16zM40 440h48v16H40zM376 376h80v16h-80zM376 408h80v16h-80zM440 440h16v16h-16zM376 440h48v16h-48z"/></svg>